# xmcd
#
# Track frame offsets: 
#        150
#        19619
#        32550
#        46921
#        63763
#        82446
#        98168
#        132163
#        148332
#        165890
#        181124
#        195056
#        218476
#        235304
#        251697
#
# Disc length: 3619 seconds
#
# Revision: 0
# Processed by: cddbd v1.5.2PL0 Copyright (c) Steve Scherf et al.
# Submitted via: ExactAudioCopy v0.95b3
#
DISCID=bd0e210f
DTITLE=Roosevelt Dean - Touch Somebody's Hand
DYEAR=2005
DGENRE=Blues
TTITLE0=Whiskey and Gin
TTITLE1=I Been Watching You
TTITLE2=Fire and Ice
TTITLE3=Step Into My Heart
TTITLE4=Honey Bee
TTITLE5=It Hurts Me Too
TTITLE6=God
TTITLE7=Blues Man
TTITLE8=Stay Away
TTITLE9=Willie Mae
TTITLE10=If You Want To Love Me
TTITLE11=I've Got A Woman
TTITLE12=Big Fat Woman
TTITLE13=Where Am I Gonna Go
TTITLE14=Touch Somebody's Hand
EXTD=
EXTT0=
EXTT1=
EXTT2=
EXTT3=
EXTT4=
EXTT5=
EXTT6=
EXTT7=
EXTT8=
EXTT9=
EXTT10=
EXTT11=
EXTT12=
EXTT13=
EXTT14=
PLAYORDER=
